# xmcd
#
# Track frame offsets: 
#        150
#        13348
#        25048
#        37423
#        47153
#        57308
#        72928
#        85815
#        96788
#        107698
#        116595
#        125830
#        143093
#        153325
#        172500
#
# Disc length: 2443 seconds
#
# Revision: 7
# Processed by: cddbd v1.5PL3 Copyright (c) Steve Scherf et al.
# Submitted via: ExactAudioCopy v0.95a3
#
DISCID=c909890f
DTITLE=SPENCER DAVIS GROUP - The Best Of The Spencer Davis Group
DYEAR=1987
DGENRE=Rock
TTITLE0=Gimme Some Lovin'
TTITLE1=Searchin'
TTITLE2=Keep On Running
TTITLE3=I Can't Stand It
TTITLE4=Strong Love
TTITLE5=Every Little Bit Hurts
TTITLE6=I'm A Man
TTITLE7=Back Into My Life Again
TTITLE8=Trampoline
TTITLE9=Somebody Help Me
TTITLE10=When I Come Home
TTITLE11=Stevie's Blues
TTITLE12=The Hammer Song
TTITLE13=Waltz For Lumumba
TTITLE14=Goodbye Stevie
EXTD=Original Master Recording Verbatim - AZO
EXTT0=
EXTT1=
EXTT2=
EXTT3=
EXTT4=
EXTT5=
EXTT6=
EXTT7=
EXTT8=
EXTT9=
EXTT10=
EXTT11=
EXTT12=
EXTT13=
EXTT14=
PLAYORDER=
